<svg width="21" height="20" viewBox="0 0 21 20" fill="none" xmlns="http://www.w3.org/2000/svg">
<path d="M6.75 6.875V5.625C6.75 4.63044 7.14509 3.67661 7.84835 2.97335C8.55161 2.27009 9.50544 1.875 10.5 1.875V1.875C11.4946 1.875 12.4484 2.27009 13.1517 2.97335C13.8549 3.67661 14.25 4.63044 14.25 5.625V6.875M3.625 6.875C3.45924 6.875 3.30027 6.94085 3.18306 7.05806C3.06585 7.17527 3 7.33424 3 7.5V15.9375C3 17.1187 4.00625 18.125 5.1875 18.125H15.8125C16.9937 18.125 18 17.1676 18 15.9863V7.5C18 7.33424 17.9342 7.17527 17.8169 7.05806C17.6997 6.94085 17.5408 6.875 17.375 6.875H3.625Z" stroke="white" stroke-width="1.5" stroke-linecap="round" stroke-linejoin="round"/>
<path d="M6.75 8.75V9.375C6.75 10.3696 7.14509 11.3234 7.84835 12.0267C8.55161 12.7299 9.50544 13.125 10.5 13.125C11.4946 13.125 12.4484 12.7299 13.1517 12.0267C13.8549 11.3234 14.25 10.3696 14.25 9.375V8.75" stroke="white" stroke-width="1.5" stroke-linecap="round" stroke-linejoin="round"/>
</svg>
