<svg width="27" height="26" viewBox="0 0 27 26" fill="none" xmlns="http://www.w3.org/2000/svg">
<path d="M11.2744 5.41667C11.2744 4.22005 12.2445 3.25 13.4411 3.25C14.6377 3.25 15.6077 4.22005 15.6077 5.41667C18.1429 6.61543 19.8096 9.11543 19.9411 11.9167V15.1667C20.1064 16.5325 20.9105 17.7387 22.1077 18.4167H4.77441C5.97162 17.7387 6.77575 16.5325 6.94108 15.1667V11.9167C7.07256 9.11543 8.73923 6.61543 11.2744 5.41667" stroke="#4B465C" stroke-width="2" stroke-linecap="round" stroke-linejoin="round"/>
<path d="M11.2744 5.41667C11.2744 4.22005 12.2445 3.25 13.4411 3.25C14.6377 3.25 15.6077 4.22005 15.6077 5.41667C18.1429 6.61543 19.8096 9.11543 19.9411 11.9167V15.1667C20.1064 16.5325 20.9105 17.7387 22.1077 18.4167H4.77441C5.97162 17.7387 6.77575 16.5325 6.94108 15.1667V11.9167C7.07256 9.11543 8.73923 6.61543 11.2744 5.41667" stroke="white" stroke-opacity="0.2" stroke-width="2" stroke-linecap="round" stroke-linejoin="round"/>
<path d="M10.1909 18.4167V19.5C10.1909 21.2949 11.646 22.75 13.4409 22.75C15.2358 22.75 16.6909 21.2949 16.6909 19.5V18.4167" stroke="#4B465C" stroke-width="2" stroke-linecap="round" stroke-linejoin="round"/>
<path d="M10.1909 18.4167V19.5C10.1909 21.2949 11.646 22.75 13.4409 22.75C15.2358 22.75 16.6909 21.2949 16.6909 19.5V18.4167" stroke="white" stroke-opacity="0.2" stroke-width="2" stroke-linecap="round" stroke-linejoin="round"/>
</svg>
