<svg width="32" height="32" viewBox="0 0 32 32" fill="none" xmlns="http://www.w3.org/2000/svg">
<path d="M22.7836 11.6582L22.7838 11.6579C22.9537 11.4496 23.0349 11.1827 23.0096 10.915C22.9844 10.6474 22.8549 10.4003 22.649 10.2274C22.4431 10.0545 22.1774 9.9695 21.9094 9.99085C21.6414 10.0122 21.3925 10.1382 21.2166 10.3415L21.2164 10.3418L13.5719 19.4405L10.7597 16.316C10.7596 16.3159 10.7595 16.3158 10.7595 16.3158C10.6706 16.2124 10.5621 16.1278 10.4401 16.0669C10.318 16.0061 10.185 15.9702 10.0489 15.9614C9.9128 15.9527 9.77631 15.9712 9.64746 16.016C9.51861 16.0607 9.40001 16.1308 9.29862 16.222C9.19723 16.3132 9.1151 16.4238 9.05706 16.5473C8.99902 16.6707 8.96624 16.8045 8.96065 16.9408C8.95505 17.0771 8.97676 17.2131 9.02449 17.3409C9.07218 17.4686 9.14491 17.5854 9.23839 17.6846C9.23845 17.6847 9.23851 17.6848 9.23857 17.6848L12.8382 21.6844C12.9341 21.7911 13.0514 21.8764 13.1824 21.9348C13.3135 21.9932 13.4553 22.0234 13.5987 22.0234L13.6156 22.0234L13.616 22.0234C13.7626 22.0211 13.9071 21.9873 14.0395 21.9243C14.1719 21.8613 14.2893 21.7705 14.3836 21.6582L22.7836 11.6582ZM3.02344 16C3.02344 8.84482 8.84482 3.02344 16 3.02344C23.1552 3.02344 28.9766 8.84482 28.9766 16C28.9766 23.1552 23.1552 28.9766 16 28.9766C8.84482 28.9766 3.02344 23.1552 3.02344 16Z" fill="#003F62" stroke="#003F62" stroke-width="0.046875"/>
</svg>
