<svg width="22" height="23" viewBox="0 0 22 23" fill="none" xmlns="http://www.w3.org/2000/svg">
<path d="M12.8335 3.48071V7.14738C12.8335 7.65364 13.2439 8.06405 13.7502 8.06405H17.4168" stroke="#8B909A" stroke-width="1.75" stroke-linecap="round" stroke-linejoin="round"/>
<path d="M12.8335 3.48071V7.14738C12.8335 7.65364 13.2439 8.06405 13.7502 8.06405H17.4168" stroke="#8B909A" stroke-width="1.75" stroke-linecap="round" stroke-linejoin="round"/>
<path fill-rule="evenodd" clip-rule="evenodd" d="M15.5835 19.9807H6.41683C5.40431 19.9807 4.5835 19.1599 4.5835 18.1474V5.31405C4.5835 4.30152 5.40431 3.48071 6.41683 3.48071H12.8335L17.4168 8.06405V18.1474C17.4168 19.1599 16.596 19.9807 15.5835 19.9807Z" stroke="#8B909A" stroke-width="1.75" stroke-linecap="round" stroke-linejoin="round"/>
<path fill-rule="evenodd" clip-rule="evenodd" d="M15.5835 19.9807H6.41683C5.40431 19.9807 4.5835 19.1599 4.5835 18.1474V5.31405C4.5835 4.30152 5.40431 3.48071 6.41683 3.48071H12.8335L17.4168 8.06405V18.1474C17.4168 19.1599 16.596 19.9807 15.5835 19.9807Z" stroke="#8B909A" stroke-width="1.75" stroke-linecap="round" stroke-linejoin="round"/>
<path d="M8.25 8.98067H9.16667" stroke="#8B909A" stroke-width="1.75" stroke-linecap="round" stroke-linejoin="round"/>
<path d="M8.25 8.98067H9.16667" stroke="#8B909A" stroke-width="1.75" stroke-linecap="round" stroke-linejoin="round"/>
<path d="M8.25 12.6474H13.75" stroke="#8B909A" stroke-width="1.75" stroke-linecap="round" stroke-linejoin="round"/>
<path d="M8.25 12.6474H13.75" stroke="#8B909A" stroke-width="1.75" stroke-linecap="round" stroke-linejoin="round"/>
<path d="M8.25 16.314H13.75" stroke="#8B909A" stroke-width="1.75" stroke-linecap="round" stroke-linejoin="round"/>
<path d="M8.25 16.314H13.75" stroke="#8B909A" stroke-width="1.75" stroke-linecap="round" stroke-linejoin="round"/>
</svg>
