<svg width="22" height="23" viewBox="0 0 22 23" fill="none" xmlns="http://www.w3.org/2000/svg">
<path d="M12.8335 3.48077V7.14744C12.8335 7.6537 13.2439 8.06411 13.7502 8.06411H17.4168" stroke="#8B909A" stroke-width="1.75" stroke-linecap="round" stroke-linejoin="round"/>
<path d="M12.8335 3.48077V7.14744C12.8335 7.6537 13.2439 8.06411 13.7502 8.06411H17.4168" stroke="#8B909A" stroke-width="1.75" stroke-linecap="round" stroke-linejoin="round"/>
<path fill-rule="evenodd" clip-rule="evenodd" d="M15.5835 19.9808H6.41683C5.40431 19.9808 4.5835 19.16 4.5835 18.1474V5.31411C4.5835 4.30159 5.40431 3.48077 6.41683 3.48077H12.8335L17.4168 8.06411V18.1474C17.4168 19.16 16.596 19.9808 15.5835 19.9808Z" stroke="#8B909A" stroke-width="1.75" stroke-linecap="round" stroke-linejoin="round"/>
<path fill-rule="evenodd" clip-rule="evenodd" d="M15.5835 19.9808H6.41683C5.40431 19.9808 4.5835 19.16 4.5835 18.1474V5.31411C4.5835 4.30159 5.40431 3.48077 6.41683 3.48077H12.8335L17.4168 8.06411V18.1474C17.4168 19.16 16.596 19.9808 15.5835 19.9808Z" stroke="#8B909A" stroke-width="1.75" stroke-linecap="round" stroke-linejoin="round"/>
<path d="M8.25 8.98076H9.16667" stroke="#8B909A" stroke-width="1.75" stroke-linecap="round" stroke-linejoin="round"/>
<path d="M8.25 8.98076H9.16667" stroke="#8B909A" stroke-width="1.75" stroke-linecap="round" stroke-linejoin="round"/>
<path d="M8.25 12.6475H13.75" stroke="#8B909A" stroke-width="1.75" stroke-linecap="round" stroke-linejoin="round"/>
<path d="M8.25 12.6475H13.75" stroke="#8B909A" stroke-width="1.75" stroke-linecap="round" stroke-linejoin="round"/>
<path d="M8.25 16.3141H13.75" stroke="#8B909A" stroke-width="1.75" stroke-linecap="round" stroke-linejoin="round"/>
<path d="M8.25 16.3141H13.75" stroke="#8B909A" stroke-width="1.75" stroke-linecap="round" stroke-linejoin="round"/>
</svg>
