<svg width="25" height="24" viewBox="0 0 25 24" fill="none" xmlns="http://www.w3.org/2000/svg">
<path d="M14 18C14 18.2967 13.912 18.5867 13.7472 18.8334C13.5824 19.08 13.3481 19.2723 13.074 19.3858C12.7999 19.4994 12.4983 19.5291 12.2074 19.4712C11.9164 19.4133 11.6491 19.2704 11.4393 19.0607C11.2296 18.8509 11.0867 18.5836 11.0288 18.2926C10.9709 18.0017 11.0006 17.7001 11.1142 17.426C11.2277 17.1519 11.42 16.9176 11.6666 16.7528C11.9133 16.588 12.2033 16.5 12.5 16.5C12.8978 16.5 13.2794 16.658 13.5607 16.9393C13.842 17.2206 14 17.6022 14 18ZM12.5 7.5C12.7967 7.5 13.0867 7.41203 13.3334 7.24721C13.58 7.08238 13.7723 6.84811 13.8858 6.57403C13.9994 6.29994 14.0291 5.99834 13.9712 5.70737C13.9133 5.41639 13.7704 5.14912 13.5607 4.93934C13.3509 4.72956 13.0836 4.5867 12.7926 4.52882C12.5017 4.47094 12.2001 4.50065 11.926 4.61418C11.6519 4.72771 11.4176 4.91997 11.2528 5.16665C11.088 5.41332 11 5.70333 11 6C11 6.39783 11.158 6.77936 11.4393 7.06066C11.7206 7.34197 12.1022 7.5 12.5 7.5ZM12.5 10.5C12.2033 10.5 11.9133 10.588 11.6666 10.7528C11.42 10.9176 11.2277 11.1519 11.1142 11.426C11.0006 11.7001 10.9709 12.0017 11.0288 12.2926C11.0867 12.5836 11.2296 12.8509 11.4393 13.0607C11.6491 13.2704 11.9164 13.4133 12.2074 13.4712C12.4983 13.5291 12.7999 13.4994 13.074 13.3858C13.3481 13.2723 13.5824 13.08 13.7472 12.8334C13.912 12.5867 14 12.2967 14 12C14 11.6022 13.842 11.2206 13.5607 10.9393C13.2794 10.658 12.8978 10.5 12.5 10.5Z" fill="black"/>
</svg>
