<svg width="65" height="64" viewBox="0 0 65 64" fill="none" xmlns="http://www.w3.org/2000/svg">
<path d="M54.5 10.5H10.5C9.57174 10.5 8.6815 10.8687 8.02513 11.5251C7.36875 12.1815 7 13.0717 7 14V50C7 50.9283 7.36875 51.8185 8.02513 52.4749C8.6815 53.1312 9.57174 53.5 10.5 53.5H54.5C55.4283 53.5 56.3185 53.1312 56.9749 52.4749C57.6312 51.8185 58 50.9283 58 50V14C58 13.0717 57.6312 12.1815 56.9749 11.5251C56.3185 10.8687 55.4283 10.5 54.5 10.5ZM10.5 13.5H54.5C54.6326 13.5 54.7598 13.5527 54.8536 13.6464C54.9473 13.7402 55 13.8674 55 14V42.375L46.975 34.35C46.3154 33.6996 45.4263 33.335 44.5 33.335C43.5737 33.335 42.6846 33.6996 42.025 34.35L36.85 39.525C36.8055 39.5735 36.7514 39.6122 36.6912 39.6387C36.6309 39.6652 36.5658 39.6789 36.5 39.6789C36.4342 39.6789 36.3691 39.6652 36.3088 39.6387C36.2486 39.6122 36.1945 39.5735 36.15 39.525L24.975 28.35C24.3154 27.6996 23.4263 27.335 22.5 27.335C21.5737 27.335 20.6846 27.6996 20.025 28.35L10 38.375V14C10 13.8674 10.0527 13.7402 10.1464 13.6464C10.2402 13.5527 10.3674 13.5 10.5 13.5ZM54.5 50.5H10.5C10.3674 50.5 10.2402 50.4473 10.1464 50.3536C10.0527 50.2598 10 50.1326 10 50V42.625L22.15 30.475C22.1945 30.4265 22.2486 30.3878 22.3088 30.3613C22.3691 30.3348 22.4342 30.3211 22.5 30.3211C22.5658 30.3211 22.6309 30.3348 22.6912 30.3613C22.7514 30.3878 22.8055 30.4265 22.85 30.475L34.025 41.65C34.6846 42.3004 35.5737 42.665 36.5 42.665C37.4263 42.665 38.3154 42.3004 38.975 41.65L44.15 36.475C44.1945 36.4265 44.2486 36.3878 44.3088 36.3613C44.3691 36.3348 44.4342 36.3211 44.5 36.3211C44.5658 36.3211 44.6309 36.3348 44.6912 36.3613C44.7514 36.3878 44.8055 36.4265 44.85 36.475L55 46.625V50C55 50.1326 54.9473 50.2598 54.8536 50.3536C54.7598 50.4473 54.6326 50.5 54.5 50.5ZM37.725 26.775C37.4922 26.5422 37.3081 26.2653 37.1836 25.9606C37.0591 25.6558 36.9967 25.3292 37 25C37 24.337 37.2634 23.7011 37.7322 23.2322C38.2011 22.7634 38.837 22.5 39.5 22.5C40.163 22.5 40.7989 22.7634 41.2678 23.2322C41.7366 23.7011 42 24.337 42 25C42 25.663 41.7366 26.2989 41.2678 26.7678C40.7989 27.2366 40.163 27.5 39.5 27.5C39.1708 27.5033 38.8442 27.4409 38.5394 27.3164C38.2347 27.1919 37.9578 27.0078 37.725 26.775Z" fill="#003F62"/>
</svg>
