<svg width="22" height="23" viewBox="0 0 22 23" fill="none" xmlns="http://www.w3.org/2000/svg">
<path fill-rule="evenodd" clip-rule="evenodd" d="M9.46458 4.68802C9.85508 3.07836 12.1449 3.07836 12.5354 4.68802C12.6543 5.17849 13.0002 5.58271 13.4664 5.77587C13.9327 5.96904 14.4631 5.92791 14.894 5.66519C16.3084 4.80352 17.9282 6.42236 17.0665 7.83769C16.8042 8.26839 16.7631 8.79843 16.9561 9.26437C17.149 9.73031 17.5527 10.0762 18.0428 10.1954C19.6524 10.5859 19.6524 12.8757 18.0428 13.2662C17.5523 13.385 17.1481 13.731 16.9549 14.1972C16.7617 14.6634 16.8029 15.1939 17.0656 15.6248C17.9272 17.0392 16.3084 18.6589 14.8931 17.7973C14.4624 17.5349 13.9323 17.4939 13.4664 17.6868C13.0005 17.8798 12.6546 18.2835 12.5354 18.7735C12.1449 20.3832 9.85508 20.3832 9.46458 18.7735C9.34574 18.2831 8.9998 17.8788 8.53357 17.6857C8.06734 17.4925 7.53689 17.5336 7.106 17.7964C5.69158 18.658 4.07183 17.0392 4.9335 15.6239C5.19584 15.1932 5.23687 14.6631 5.04393 14.1972C4.851 13.7312 4.44727 13.3854 3.95725 13.2662C2.34758 12.8757 2.34758 10.5859 3.95725 10.1954C4.44772 10.0765 4.85194 9.73058 5.0451 9.26434C5.23826 8.79811 5.19713 8.26766 4.93442 7.83677C4.07275 6.42236 5.69158 4.80261 7.10692 5.66427C8.02358 6.22161 9.21158 5.72844 9.46458 4.68802Z" stroke="#8B909A" stroke-width="1.75" stroke-linecap="round" stroke-linejoin="round"/>
<path fill-rule="evenodd" clip-rule="evenodd" d="M9.46458 4.68802C9.85508 3.07836 12.1449 3.07836 12.5354 4.68802C12.6543 5.17849 13.0002 5.58271 13.4664 5.77587C13.9327 5.96904 14.4631 5.92791 14.894 5.66519C16.3084 4.80352 17.9282 6.42236 17.0665 7.83769C16.8042 8.26839 16.7631 8.79843 16.9561 9.26437C17.149 9.73031 17.5527 10.0762 18.0428 10.1954C19.6524 10.5859 19.6524 12.8757 18.0428 13.2662C17.5523 13.385 17.1481 13.731 16.9549 14.1972C16.7617 14.6634 16.8029 15.1939 17.0656 15.6248C17.9272 17.0392 16.3084 18.6589 14.8931 17.7973C14.4624 17.5349 13.9323 17.4939 13.4664 17.6868C13.0005 17.8798 12.6546 18.2835 12.5354 18.7735C12.1449 20.3832 9.85508 20.3832 9.46458 18.7735C9.34574 18.2831 8.9998 17.8788 8.53357 17.6857C8.06734 17.4925 7.53689 17.5336 7.106 17.7964C5.69158 18.658 4.07183 17.0392 4.9335 15.6239C5.19584 15.1932 5.23687 14.6631 5.04393 14.1972C4.851 13.7312 4.44727 13.3854 3.95725 13.2662C2.34758 12.8757 2.34758 10.5859 3.95725 10.1954C4.44772 10.0765 4.85194 9.73058 5.0451 9.26434C5.23826 8.79811 5.19713 8.26766 4.93442 7.83677C4.07275 6.42236 5.69158 4.80261 7.10692 5.66427C8.02358 6.22161 9.21158 5.72844 9.46458 4.68802Z" stroke="#8B909A" stroke-width="1.75" stroke-linecap="round" stroke-linejoin="round"/>
<circle cx="11" cy="11.7308" r="2.75" stroke="#8B909A" stroke-width="1.75" stroke-linecap="round" stroke-linejoin="round"/>
<circle cx="11" cy="11.7308" r="2.75" stroke="#8B909A" stroke-width="1.75" stroke-linecap="round" stroke-linejoin="round"/>
</svg>
