<svg width="22" height="23" viewBox="0 0 22 23" fill="none" xmlns="http://www.w3.org/2000/svg">
<path fill-rule="evenodd" clip-rule="evenodd" d="M9.46458 4.68796C9.85508 3.0783 12.1449 3.0783 12.5354 4.68796C12.6543 5.17843 13.0002 5.58265 13.4664 5.77581C13.9327 5.96897 14.4631 5.92785 14.894 5.66513C16.3084 4.80346 17.9282 6.4223 17.0665 7.83763C16.8042 8.26833 16.7631 8.79837 16.9561 9.26431C17.149 9.73025 17.5527 10.0761 18.0428 10.1953C19.6524 10.5858 19.6524 12.8756 18.0428 13.2661C17.5523 13.385 17.1481 13.7309 16.9549 14.1971C16.7617 14.6634 16.8029 15.1938 17.0656 15.6247C17.9272 17.0391 16.3084 18.6589 14.8931 17.7972C14.4624 17.5349 13.9323 17.4938 13.4664 17.6868C13.0005 17.8797 12.6546 18.2834 12.5354 18.7735C12.1449 20.3831 9.85508 20.3831 9.46458 18.7735C9.34574 18.283 8.9998 17.8788 8.53357 17.6856C8.06734 17.4925 7.53689 17.5336 7.106 17.7963C5.69158 18.658 4.07183 17.0391 4.9335 15.6238C5.19584 15.1931 5.23687 14.6631 5.04393 14.1971C4.851 13.7312 4.44727 13.3853 3.95725 13.2661C2.34758 12.8756 2.34758 10.5858 3.95725 10.1953C4.44772 10.0765 4.85194 9.73052 5.0451 9.26428C5.23826 8.79805 5.19713 8.2676 4.93442 7.83671C4.07275 6.4223 5.69158 4.80255 7.10692 5.66421C8.02358 6.22155 9.21158 5.72838 9.46458 4.68796Z" stroke="#8B909A" stroke-width="1.75" stroke-linecap="round" stroke-linejoin="round"/>
<path fill-rule="evenodd" clip-rule="evenodd" d="M9.46458 4.68796C9.85508 3.0783 12.1449 3.0783 12.5354 4.68796C12.6543 5.17843 13.0002 5.58265 13.4664 5.77581C13.9327 5.96897 14.4631 5.92785 14.894 5.66513C16.3084 4.80346 17.9282 6.4223 17.0665 7.83763C16.8042 8.26833 16.7631 8.79837 16.9561 9.26431C17.149 9.73025 17.5527 10.0761 18.0428 10.1953C19.6524 10.5858 19.6524 12.8756 18.0428 13.2661C17.5523 13.385 17.1481 13.7309 16.9549 14.1971C16.7617 14.6634 16.8029 15.1938 17.0656 15.6247C17.9272 17.0391 16.3084 18.6589 14.8931 17.7972C14.4624 17.5349 13.9323 17.4938 13.4664 17.6868C13.0005 17.8797 12.6546 18.2834 12.5354 18.7735C12.1449 20.3831 9.85508 20.3831 9.46458 18.7735C9.34574 18.283 8.9998 17.8788 8.53357 17.6856C8.06734 17.4925 7.53689 17.5336 7.106 17.7963C5.69158 18.658 4.07183 17.0391 4.9335 15.6238C5.19584 15.1931 5.23687 14.6631 5.04393 14.1971C4.851 13.7312 4.44727 13.3853 3.95725 13.2661C2.34758 12.8756 2.34758 10.5858 3.95725 10.1953C4.44772 10.0765 4.85194 9.73052 5.0451 9.26428C5.23826 8.79805 5.19713 8.2676 4.93442 7.83671C4.07275 6.4223 5.69158 4.80255 7.10692 5.66421C8.02358 6.22155 9.21158 5.72838 9.46458 4.68796Z" stroke="#8B909A" stroke-width="1.75" stroke-linecap="round" stroke-linejoin="round"/>
<circle cx="11" cy="11.7307" r="2.75" stroke="#8B909A" stroke-width="1.75" stroke-linecap="round" stroke-linejoin="round"/>
<circle cx="11" cy="11.7307" r="2.75" stroke="#8B909A" stroke-width="1.75" stroke-linecap="round" stroke-linejoin="round"/>
</svg>
