<svg width="22" height="23" viewBox="0 0 22 23" fill="none" xmlns="http://www.w3.org/2000/svg">
<path d="M13.7498 5.31412V7.14745" stroke="#8B909A" stroke-width="1.75" stroke-linecap="round" stroke-linejoin="round"/>
<path d="M13.7498 5.31412V7.14745" stroke="#8B909A" stroke-width="1.75" stroke-linecap="round" stroke-linejoin="round"/>
<path d="M13.7498 10.8141V12.6475" stroke="#8B909A" stroke-width="1.75" stroke-linecap="round" stroke-linejoin="round"/>
<path d="M13.7498 10.8141V12.6475" stroke="#8B909A" stroke-width="1.75" stroke-linecap="round" stroke-linejoin="round"/>
<path d="M13.7498 16.3141V18.1475" stroke="#8B909A" stroke-width="1.75" stroke-linecap="round" stroke-linejoin="round"/>
<path d="M13.7498 16.3141V18.1475" stroke="#8B909A" stroke-width="1.75" stroke-linecap="round" stroke-linejoin="round"/>
<path d="M4.58333 5.31412H17.4167C18.4292 5.31412 19.25 6.13493 19.25 7.14745V9.89745C18.2375 9.89745 17.4167 10.7183 17.4167 11.7308C17.4167 12.7433 18.2375 13.5641 19.25 13.5641V16.3141C19.25 17.3266 18.4292 18.1474 17.4167 18.1474H4.58333C3.57081 18.1474 2.75 17.3266 2.75 16.3141V13.5641C3.76252 13.5641 4.58333 12.7433 4.58333 11.7308C4.58333 10.7183 3.76252 9.89745 2.75 9.89745V7.14745C2.75 6.13493 3.57081 5.31412 4.58333 5.31412" stroke="#8B909A" stroke-width="1.75" stroke-linecap="round" stroke-linejoin="round"/>
<path d="M4.58333 5.31412H17.4167C18.4292 5.31412 19.25 6.13493 19.25 7.14745V9.89745C18.2375 9.89745 17.4167 10.7183 17.4167 11.7308C17.4167 12.7433 18.2375 13.5641 19.25 13.5641V16.3141C19.25 17.3266 18.4292 18.1474 17.4167 18.1474H4.58333C3.57081 18.1474 2.75 17.3266 2.75 16.3141V13.5641C3.76252 13.5641 4.58333 12.7433 4.58333 11.7308C4.58333 10.7183 3.76252 9.89745 2.75 9.89745V7.14745C2.75 6.13493 3.57081 5.31412 4.58333 5.31412" stroke="#8B909A" stroke-width="1.75" stroke-linecap="round" stroke-linejoin="round"/>
</svg>
