<svg width="22" height="23" viewBox="0 0 22 23" fill="none" xmlns="http://www.w3.org/2000/svg">
<ellipse cx="8.25016" cy="7.14738" rx="3.66667" ry="3.66667" stroke="#8B909A" stroke-width="1.75" stroke-linecap="round" stroke-linejoin="round"/>
<ellipse cx="8.25016" cy="7.14738" rx="3.66667" ry="3.66667" stroke="#8B909A" stroke-width="1.75" stroke-linecap="round" stroke-linejoin="round"/>
<path d="M2.75 19.9807V18.1474C2.75 16.1223 4.39162 14.4807 6.41667 14.4807H10.0833C12.1084 14.4807 13.75 16.1223 13.75 18.1474V19.9807" stroke="#8B909A" stroke-width="1.75" stroke-linecap="round" stroke-linejoin="round"/>
<path d="M2.75 19.9807V18.1474C2.75 16.1223 4.39162 14.4807 6.41667 14.4807H10.0833C12.1084 14.4807 13.75 16.1223 13.75 18.1474V19.9807" stroke="#8B909A" stroke-width="1.75" stroke-linecap="round" stroke-linejoin="round"/>
<path d="M14.6665 3.59973C16.2889 4.01514 17.4237 5.47706 17.4237 7.15181C17.4237 8.82657 16.2889 10.2885 14.6665 10.7039" stroke="#8B909A" stroke-width="1.75" stroke-linecap="round" stroke-linejoin="round"/>
<path d="M14.6665 3.59973C16.2889 4.01514 17.4237 5.47706 17.4237 7.15181C17.4237 8.82657 16.2889 10.2885 14.6665 10.7039" stroke="#8B909A" stroke-width="1.75" stroke-linecap="round" stroke-linejoin="round"/>
<path d="M19.25 19.9807V18.1473C19.2404 16.4832 18.1113 15.0342 16.5 14.6182" stroke="#8B909A" stroke-width="1.75" stroke-linecap="round" stroke-linejoin="round"/>
<path d="M19.25 19.9807V18.1473C19.2404 16.4832 18.1113 15.0342 16.5 14.6182" stroke="#8B909A" stroke-width="1.75" stroke-linecap="round" stroke-linejoin="round"/>
</svg>
