<svg width="22" height="23" viewBox="0 0 22 23" fill="none" xmlns="http://www.w3.org/2000/svg">
<ellipse cx="8.25016" cy="7.14744" rx="3.66667" ry="3.66667" stroke="#8B909A" stroke-width="1.75" stroke-linecap="round" stroke-linejoin="round"/>
<ellipse cx="8.25016" cy="7.14744" rx="3.66667" ry="3.66667" stroke="#8B909A" stroke-width="1.75" stroke-linecap="round" stroke-linejoin="round"/>
<path d="M2.75 19.9808V18.1474C2.75 16.1224 4.39162 14.4808 6.41667 14.4808H10.0833C12.1084 14.4808 13.75 16.1224 13.75 18.1474V19.9808" stroke="#8B909A" stroke-width="1.75" stroke-linecap="round" stroke-linejoin="round"/>
<path d="M2.75 19.9808V18.1474C2.75 16.1224 4.39162 14.4808 6.41667 14.4808H10.0833C12.1084 14.4808 13.75 16.1224 13.75 18.1474V19.9808" stroke="#8B909A" stroke-width="1.75" stroke-linecap="round" stroke-linejoin="round"/>
<path d="M14.6665 3.59984C16.2889 4.01524 17.4237 5.47716 17.4237 7.15192C17.4237 8.82668 16.2889 10.2886 14.6665 10.704" stroke="#8B909A" stroke-width="1.75" stroke-linecap="round" stroke-linejoin="round"/>
<path d="M14.6665 3.59984C16.2889 4.01524 17.4237 5.47716 17.4237 7.15192C17.4237 8.82668 16.2889 10.2886 14.6665 10.704" stroke="#8B909A" stroke-width="1.75" stroke-linecap="round" stroke-linejoin="round"/>
<path d="M19.25 19.9807V18.1473C19.2404 16.4832 18.1113 15.0342 16.5 14.6182" stroke="#8B909A" stroke-width="1.75" stroke-linecap="round" stroke-linejoin="round"/>
<path d="M19.25 19.9807V18.1473C19.2404 16.4832 18.1113 15.0342 16.5 14.6182" stroke="#8B909A" stroke-width="1.75" stroke-linecap="round" stroke-linejoin="round"/>
</svg>
